<svg xmlns="http://www.w3.org/2000/svg" viewBox="0 0 300 300"><defs><style>.cls-1{fill:#f4978e;}</style></defs><g id="Layer_1" data-name="Layer 1"><path class="cls-1" d="M12.76,141.09c2.82,1.19,5.1,2,7.29,3.07,31.49,14.72,63,29.33,94.39,44.34,5.28,2.53,8.36,2.16,12.47-2.16q72.42-76.17,145.23-152c2.45-2.56,5-5.06,7.37-7.67,3-3.26,6.28-6.48,10.7-2.81,4.1,3.42,1.63,7.12-.64,10.59q-33.29,50.92-66.5,101.88-43.78,67.08-87.59,134.15c-6.14,9.4-8.87,9.56-16.52,1.24Q66.52,214.66,14.05,157.63c-2-2.12-4.24-4.09-5.58-6.55A7.8,7.8,0,0,1,8,145C8.78,143.27,11.17,142.31,12.76,141.09Z"/></g></svg>